<?xml version="1.0" encoding="UTF-8"?>
<svg width="10px" height="17px" viewBox="0 0 10 17" version="1.1" xmlns="http://www.w3.org/2000/svg" xmlns:xlink="http://www.w3.org/1999/xlink">
    <!-- Generator: Sketch 64 (93537) - https://sketch.com -->
    <title>Path</title>
    <desc>Created with Sketch.</desc>
    <g id="Chat-UI" stroke="none" stroke-width="1" fill="none" fill-rule="evenodd">
        <g id="Group-9" transform="translate(-28.000000, -420.000000)" fill="#515258">
            <g id="Dialog">
                <g id="Bottom-UI" transform="translate(24.000000, 325.000000)">
                    <g id="Back" transform="translate(3.500000, 90.500000)">
                        <path d="M0.8532896,20.8208583 L0.853289567,20.8208583 C0.491999173,20.5836137 0.391440098,20.0984036 0.628684746,19.7371151 C0.637856586,19.7231477 0.647473424,19.7094776 0.657520437,19.6961258 L5.07268327,13.8249287 L5.07268331,13.8249286 C5.44069763,13.3365171 5.44069763,12.6634189 5.07268323,12.1750074 L0.657520398,6.30428084 L0.657520328,6.30428075 C0.397573028,5.95929051 0.466513946,5.46889166 0.811504662,5.20894201 C0.825109265,5.19869104 0.839045122,5.18888727 0.853289929,5.1795464 L0.853289958,5.17954638 C1.2631335,4.90884118 1.80375941,4.94745714 2.17096806,5.27366624 L9.29725359,11.6319337 L9.29725354,11.6319336 C10.052796,12.3025753 10.1216259,13.4587249 9.45098281,14.2142674 C9.40283297,14.2685129 9.35149906,14.3198468 9.29725354,14.3679967 L2.17143862,20.7257935 L2.1714386,20.7257935 C1.80445302,21.0522986 1.26381252,21.0913019 0.853760503,20.8208546 L0.8532896,20.8208583 Z" id="Path" transform="translate(5.206095, 13.000000) scale(-1, 1) translate(-5.206095, -13.000000) "></path>
                    </g>
                </g>
            </g>
        </g>
    </g>
</svg>