<?xml version="1.0" encoding="UTF-8"?>
<svg width="42px" height="31px" viewBox="0 0 42 31" version="1.1" xmlns="http://www.w3.org/2000/svg" xmlns:xlink="http://www.w3.org/1999/xlink">
    <title>Group 37</title>
    <g id="Symbols" stroke="none" stroke-width="1" fill="none" fill-rule="evenodd">
        <g id="Bottom-Tab-Bar---Conversations" transform="translate(-114.000000, -14.000000)">
            <g id="Bottom-Tab-Bar">
                <g id="Group-37" transform="translate(114.000000, 14.000000)">
                    <g id="Group-36">
                        <path d="M26.7271719,0 C34.0402701,0 40.169072,4.9512028 41.6558281,11.5392025 C37.0037557,12.1483185 33.4088263,15.980608 33.4088263,20.6022727 C33.4088263,22.8474922 34.2572467,24.9064153 35.6630051,26.5000269 C33.1496441,28.2434658 30.0615044,29.2727273 26.7271719,29.2727273 C24.7709901,29.2727273 22.8682628,28.9227273 21.066081,28.2329091 L21.066081,28.2329091 L17.5189901,30.4487273 C17.4158992,30.5136364 17.2988083,30.5454545 17.1817174,30.5454545 C17.076081,30.5454545 16.9691719,30.5187273 16.8737174,30.4665455 C16.6713537,30.3532727 16.5453537,30.1407273 16.5453537,29.9090909 L16.5453537,29.9090909 L16.5453537,25.5309091 C13.3062628,22.75 11.4544446,18.7969091 11.4544446,14.6363636 C11.4544446,6.566 18.3055355,0 26.7271719,0 Z" id="Combined-Shape" fill="#F7F7FF" fill-rule="nonzero" transform="translate(26.555109, 15.272727) scale(-1, 1) translate(-26.555109, -15.272727) "></path>
                        <path d="M26.7280548,5.72727273 C27.6055241,5.72727273 28.2780941,6.22896566 28.8708942,6.67318913 C29.163384,6.89064118 29.4386684,7.0956674 29.6811065,7.1981805 C29.8913237,7.28391874 30.1596009,7.33585871 30.4499009,7.38262954 L30.6711921,7.41718578 C31.3922498,7.5259118 32.2102826,7.64861689 32.8046468,8.24661002 C33.3974469,8.83994346 33.5210121,9.65383541 33.6289362,10.3729804 C33.6868085,10.7488618 33.7399884,11.1045512 33.8494766,11.3701534 C33.94958,11.6140103 34.1560434,11.890485 34.3750197,12.1824921 C34.8176646,12.7742723 35.3181818,13.4452672 35.3181818,14.3181818 C35.3181818,15.1910965 34.8176646,15.8620914 34.3750197,16.4538716 C34.1560434,16.7458786 33.9511441,17.0208001 33.8494766,17.2646571 C33.7399884,17.5302592 33.6868085,17.8843954 33.6289362,18.26183 C33.5210121,18.980975 33.3974469,19.7964202 32.8046468,20.3897536 C32.2583792,20.9364902 31.5267964,21.0851579 30.8532614,21.1898858 L30.6711921,21.2176246 C30.2973683,21.2735409 29.943878,21.3279039 29.6795424,21.4381831 C29.4371043,21.5375898 29.1618198,21.7441692 28.8693301,21.9616213 C28.2780941,22.4058447 27.6055241,22.9090909 26.7280548,22.9090909 C25.8505855,22.9090909 25.1780155,22.407398 24.5852154,21.9631745 C24.2927256,21.7457225 24.0174411,21.5406962 23.7750031,21.4381831 C23.5122316,21.3310103 23.1587413,21.2766473 22.7849174,21.2191779 C22.0638598,21.1104518 21.245827,20.9877467 20.6514627,20.3897536 C20.0570985,19.7979734 19.9350974,18.980975 19.8256093,18.26183 C19.767737,17.8859486 19.714557,17.5302592 19.6050689,17.2662103 C19.5049654,17.0223533 19.2985021,16.7458786 19.0795258,16.4554248 C18.638445,15.8620914 18.1363636,15.1910965 18.1363636,14.3181818 C18.1363636,13.4452672 18.6368809,12.7742723 19.0795258,12.1824921 C19.2985021,11.890485 19.5034013,11.6140103 19.6050689,11.3701534 C19.714557,11.1045512 19.767737,10.750415 19.8256093,10.3729804 C19.9335333,9.65383541 20.0570985,8.83839023 20.6498986,8.24505679 C21.245827,7.64861689 22.0622957,7.5259118 22.7833533,7.41718578 C23.1571771,7.36126954 23.5106674,7.30690653 23.7750031,7.19662727 C24.0174411,7.09722062 24.2927256,6.89064118 24.5852154,6.67318913 C25.1780155,6.22896566 25.8505855,5.72727273 26.7280548,5.72727273 Z M30.3848026,12.5766388 C30.1720602,12.3532416 29.8262176,12.3532416 29.6134752,12.5766388 L29.6134752,12.5766388 L25.6357387,16.7535926 L23.8399751,14.8678915 C23.6272327,14.6444944 23.28139,14.6444944 23.0686477,14.8678915 C22.8559053,15.0912887 22.8559053,15.4544523 23.0686477,15.6778494 L23.0686477,15.6778494 L25.2506205,17.9691022 C25.3575372,18.0802279 25.4971834,18.1363636 25.6368297,18.1363636 C25.776476,18.1363636 25.9161222,18.0802279 26.0230389,17.9691022 L26.0230389,17.9691022 L30.3869846,13.3865966 C30.5997269,13.1620539 30.597545,12.8000359 30.3848026,12.5766388 Z" id="Combined-Shape" fill="#131415"></path>
                        <path d="M9.09090909,12.86 C4.35373864,12.86 0.5,16.553375 0.5,21.0929545 C0.5,23.4332614 1.54164773,25.656875 3.36363636,27.2211364 L3.36363636,29.6838636 C3.36363636,29.8141591 3.43451136,29.9337159 3.54834091,29.9974318 C3.60203409,30.0267841 3.66217045,30.0418182 3.72159091,30.0418182 C3.78745455,30.0418182 3.85331818,30.0239205 3.91130682,29.9874091 L5.90654545,28.7410114 C6.92027273,29.1290341 7.99055682,29.3259091 9.09090909,29.3259091 C13.8280795,29.3259091 17.6818182,25.6325341 17.6818182,21.0929545 C17.6818182,16.553375 13.8280795,12.86 9.09090909,12.86 Z M4.79545455,22.5247727 C4.20268182,22.5247727 3.72159091,22.0436818 3.72159091,21.4509091 C3.72159091,20.8581364 4.20268182,20.3770455 4.79545455,20.3770455 C5.38822727,20.3770455 5.86931818,20.8581364 5.86931818,21.4509091 C5.86931818,22.0436818 5.38822727,22.5247727 4.79545455,22.5247727 Z M9.09090909,22.5247727 C8.49813636,22.5247727 8.01704545,22.0436818 8.01704545,21.4509091 C8.01704545,20.8581364 8.49813636,20.3770455 9.09090909,20.3770455 C9.68368182,20.3770455 10.1647727,20.8581364 10.1647727,21.4509091 C10.1647727,22.0436818 9.68368182,22.5247727 9.09090909,22.5247727 Z M13.3863636,22.5247727 C12.7935909,22.5247727 12.3125,22.0436818 12.3125,21.4509091 C12.3125,20.8581364 12.7935909,20.3770455 13.3863636,20.3770455 C13.9791364,20.3770455 14.4602273,20.8581364 14.4602273,21.4509091 C14.4602273,22.0436818 13.9791364,22.5247727 13.3863636,22.5247727 Z" id="Shape" fill="#F7F7FF" fill-rule="nonzero"></path>
                    </g>
                </g>
            </g>
        </g>
    </g>
</svg>