<?xml version="1.0" encoding="UTF-8"?>
<svg width="12px" height="9px" viewBox="0 0 12 9" version="1.1" xmlns="http://www.w3.org/2000/svg" xmlns:xlink="http://www.w3.org/1999/xlink">
    <!-- Generator: Sketch 64 (93537) - https://sketch.com -->
    <title>Path</title>
    <desc>Created with Sketch.</desc>
    <g id="Page-1" stroke="none" stroke-width="1" fill="none" fill-rule="evenodd">
        <path d="M10.9706637,1.04700127 C10.7814346,0.848294906 10.5327343,0.75 10.2845867,0.75 C10.036439,0.75 9.78773875,0.848294906 9.59850956,1.04700127 L4.57061022,6.32671334 L2.40005627,4.04745134 C2.21082709,3.84874497 1.96212681,3.75045007 1.71397918,3.75045007 C1.46583155,3.75045007 1.21713127,3.84874497 1.02790209,4.04745134 C0.843322421,4.24127532 0.75,4.49547251 0.75,4.75018753 C0.75,5.00490255 0.843322421,5.25909973 1.02790209,5.45292372 L3.88524747,8.45337378 C4.07601665,8.65165789 4.32437884,8.75 4.5720389,8.75 C4.81969896,8.75 5.06806114,8.65165789 5.25794466,8.45429905 L10.9735211,2.45247365 C11.158355,2.25738855 11.250681,2.00350608 11.2499962,1.74931751 C11.2493106,1.49480575 11.155307,1.24089207 10.9706637,1.04700127 Z" id="Path" stroke="#0A0A0A" stroke-width="0.5" fill="#000000" fill-rule="nonzero"></path>
    </g>
</svg>