<?xml version="1.0" encoding="UTF-8"?>
<svg width="10px" height="16px" viewBox="0 0 10 16" version="1.1" xmlns="http://www.w3.org/2000/svg" xmlns:xlink="http://www.w3.org/1999/xlink">
    <title>Path</title>
    <g id="Chats-Tab" stroke="none" stroke-width="1" fill="none" fill-rule="evenodd">
        <g id="Chats" transform="translate(-349.000000, -237.000000)" fill="#515258">
            <g id="Group-3" transform="translate(0.000000, 214.000000)">
                <g id="Group-2-Copy" transform="translate(0.000000, 9.000000)">
                    <g id="Group" transform="translate(14.000000, 0.000000)">
                        <path d="M335.35329,29.8208583 L335.35329,29.8208583 C334.991999,29.5836137 334.89144,29.0984036 335.128685,28.7371151 C335.137857,28.7231477 335.147473,28.7094776 335.15752,28.6961258 L339.572683,22.8249287 L339.572683,22.8249286 C339.940698,22.3365171 339.940698,21.6634189 339.572683,21.1750074 L335.15752,15.3042808 L335.15752,15.3042808 C334.897573,14.9592905 334.966514,14.4688917 335.311505,14.208942 C335.325109,14.198691 335.339045,14.1888873 335.35329,14.1795464 L335.35329,14.1795464 C335.763133,13.9088412 336.303759,13.9474571 336.670968,14.2736662 L343.797254,20.6319337 L343.797254,20.6319336 C344.552796,21.3025753 344.621626,22.4587249 343.950983,23.2142674 C343.902833,23.2685129 343.851499,23.3198468 343.797254,23.3679967 L336.671439,29.7257935 L336.671439,29.7257935 C336.304453,30.0522986 335.763813,30.0913019 335.353761,29.8208546 L335.35329,29.8208583 Z" id="Path"></path>
                    </g>
                </g>
            </g>
        </g>
    </g>
</svg>