<?xml version="1.0" encoding="UTF-8"?>
<svg width="24px" height="21px" viewBox="0 0 24 21" version="1.1" xmlns="http://www.w3.org/2000/svg" xmlns:xlink="http://www.w3.org/1999/xlink">
    <!-- Generator: Sketch 64 (93537) - https://sketch.com -->
    <title>Shape</title>
    <desc>Created with Sketch.</desc>
    <g id="Chat-UI" stroke="none" stroke-width="1" fill="none" fill-rule="evenodd">
        <g id="Chat---Typing-2" transform="translate(-335.000000, -435.000000)" fill="#0B0C10">
            <g id="Group-54" transform="translate(0.000000, 403.000000)">
                <g id="Group-42-Copy" transform="translate(12.000000, 22.000000)">
                    <g id="Input-UI---Yolo-Ext">
                        <g id="Input-Bar">
                            <path d="M332.2217,21.7071397 L337.140161,17.8016077 L337.140161,17.8016077 C337.376886,17.6108629 337.418944,17.2664217 337.235072,17.0243196 L337.235072,17.0243196 C337.08677,16.8268819 336.822623,16.7565632 336.595787,16.8541344 L329.370552,19.9758326 L329.370552,19.9758327 C328.82284,20.2127594 328.200807,20.208801 327.656155,19.9649233 L323.324614,18.0307031 L323.324614,18.0307031 C323.04472,17.9017273 322.922377,17.5702725 323.051353,17.2903757 C323.116737,17.1484843 323.23861,17.0405013 323.387343,16.9926798 L346.302888,10.0227234 L346.302888,10.0227234 C346.588656,9.93738046 346.889503,10.0998577 346.974847,10.3856259 C346.975805,10.388834 346.976733,10.392051 346.977631,10.3952764 C347.015268,10.5240062 347.004904,10.6625544 346.950358,10.7852841 L338.081091,30.405673 L338.081091,30.4056731 C337.960806,30.677263 337.643128,30.799919 337.371539,30.6796336 C337.28234,30.6401276 337.205565,30.5771041 337.149437,30.4973112 L332.008426,23.2295308 L332.008426,23.2295307 C331.666681,22.7452851 331.760047,22.0788333 332.221703,21.7071369 L332.2217,21.7071397 Z M329.473645,22.2078769 L332.159517,25.6797639 L332.159517,25.679764 C332.339324,25.9126673 332.300071,26.2465625 332.071151,26.4314152 L328.233803,29.5176582 L328.233803,29.5176582 C328.003957,29.7024613 327.667817,29.6659473 327.483013,29.4361013 C327.482359,29.4352883 327.481708,29.4344734 327.481059,29.4336566 L327.481059,29.4336565 C327.384612,29.3124978 327.344698,29.155821 327.371421,29.0032843 L328.522353,22.4446089 L328.522353,22.444609 C328.573482,22.1529252 328.851387,21.9579175 329.14307,22.0090467 C329.274113,22.0320172 329.391936,22.1028842 329.473644,22.2078765 L329.473645,22.2078769 Z" id="Shape"></path>
                        </g>
                    </g>
                </g>
            </g>
        </g>
    </g>
</svg>